<svg width="30" height="30" viewBox="0 0 30 30" fill="none" xmlns="http://www.w3.org/2000/svg">
<path d="M26.25 0H3.75C1.68187 0 0 1.68187 0 3.75V26.25C0 28.3181 1.68187 30 3.75 30H26.25C28.3181 30 30 28.3181 30 26.25V3.75C30 1.68187 28.3181 0 26.25 0Z" fill="#252525"/>
<path fill-rule="evenodd" clip-rule="evenodd" d="M18.9669 13.2931H16.5082V11.3478C16.5082 10.8109 16.9488 10.8615 17.4917 10.8615H18.4752V8.42981H16.5082C15.7257 8.42981 14.9753 8.73724 14.422 9.28447C13.8687 9.8317 13.5578 10.5739 13.5578 11.3478V13.2931H11.5909V15.7248H13.5578V21.0744H16.5082V15.7248H17.9834L18.9669 13.2931Z" fill="white"/>
</svg>
