<svg width="31" height="30" viewBox="0 0 31 30" fill="none" xmlns="http://www.w3.org/2000/svg">
<path d="M24.0474 0H7.51464C3.79576 0 0.781006 3.01475 0.781006 6.73363V23.2664C0.781006 26.9852 3.79576 30 7.51464 30H24.0474C27.7663 30 30.781 26.9852 30.781 23.2664V6.73363C30.781 3.01475 27.7663 0 24.0474 0Z" fill="#252525"/>
<path d="M12.2774 12.9767H9.87686V20.0065H12.2774V12.9767Z" fill="white"/>
<path d="M11.8738 9.69599C11.645 9.55746 11.3761 9.48352 11.1011 9.48352C10.9176 9.48352 10.7359 9.51644 10.5665 9.5804C10.397 9.64436 10.2432 9.73808 10.1138 9.85619C9.98439 9.9743 9.882 10.1145 9.8125 10.2686C9.743 10.4228 9.70777 10.5879 9.70882 10.7544C9.71041 11.004 9.7934 11.2476 9.94735 11.4545C10.1013 11.6613 10.3193 11.8221 10.5738 11.9167C10.8284 12.0112 11.1081 12.0352 11.3776 11.9856C11.6472 11.936 11.8945 11.8151 12.0884 11.6381C12.2823 11.4611 12.4141 11.2359 12.4672 10.991C12.5203 10.7461 12.4923 10.4924 12.3866 10.2619C12.281 10.0314 12.1026 9.83452 11.8738 9.69599Z" fill="white"/>
<path d="M16.1306 12.9763H13.8181L13.8101 20.0207H16.2106V16.5421C16.2106 15.627 16.4027 14.741 17.6509 14.741C18.8992 14.741 18.8992 15.7941 18.8992 16.6074V20.0062H21.2997V16.1499C21.2997 14.2545 20.8116 12.802 18.4111 12.802C17.9536 12.7858 17.4998 12.8826 17.0982 13.0821C16.6965 13.2816 16.3621 13.5764 16.1306 13.9349V12.9763Z" fill="white"/>
</svg>
