<svg width="31" height="30" viewBox="0 0 31 30" fill="none" xmlns="http://www.w3.org/2000/svg">
<path d="M30.8575 25.8333C30.8575 26.9384 30.4186 27.9982 29.6372 28.7796C28.8558 29.561 27.7959 30 26.6909 30H5.02421C3.91914 30 2.85933 29.561 2.07793 28.7796C1.29653 27.9982 0.857544 26.9384 0.857544 25.8333V4.16667C0.857544 3.0616 1.29653 2.00179 2.07793 1.22039C2.85933 0.438987 3.91914 0 5.02421 0H26.6909C27.7959 0 28.8558 0.438987 29.6372 1.22039C30.4186 2.00179 30.8575 3.0616 30.8575 4.16667V25.8333Z" fill="#252525"/>
<path d="M21.652 11.5954C21.226 11.7905 20.6866 11.9737 20.2031 12.0346C20.6948 11.7331 21.4748 11.1052 21.652 10.5372C21.1927 10.8162 20.362 11.1142 19.8202 11.222C19.3874 10.7479 18.7702 10.5372 18.0864 10.5372C16.7727 10.5372 15.8566 11.6877 15.8566 13.0329V14.0311C13.9247 14.0311 12.0412 12.5103 10.8691 11.0364C10.6571 11.4079 10.5459 11.8315 10.5469 12.2627C10.5469 13.1706 11.354 14.092 11.9929 14.5303C11.6032 14.5178 10.8652 14.2103 10.5441 14.0311V14.0596C10.5441 15.241 11.3462 16.0431 12.4334 16.2667C12.2349 16.3231 11.9929 16.5268 11.0618 16.5268C11.3641 17.4926 12.884 18.0032 13.9247 18.0242C13.1105 18.6765 11.6587 19.0224 10.5441 19.0224C10.3514 19.0224 10.247 19.0334 10.0611 19.011C11.113 19.6998 12.5821 20.0207 13.9247 20.0207C18.2989 20.0207 20.6861 16.5677 20.6861 13.3473C20.6861 13.2415 20.6827 12.8871 20.6774 12.7833C21.1449 12.4429 21.3342 12.0865 21.652 11.5954Z" fill="white"/>
</svg>
